<?xml version="1.0" encoding="UTF-8" standalone="no"?>
<!-- Created with Inkscape (http://www.inkscape.org/) -->

<svg
   xmlns:dc="http://purl.org/dc/elements/1.1/"
   xmlns:cc="http://creativecommons.org/ns#"
   xmlns:rdf="http://www.w3.org/1999/02/22-rdf-syntax-ns#"
   xmlns:svg="http://www.w3.org/2000/svg"
   xmlns="http://www.w3.org/2000/svg"
   xmlns:sodipodi="http://sodipodi.sourceforge.net/DTD/sodipodi-0.dtd"
   xmlns:inkscape="http://www.inkscape.org/namespaces/inkscape"
   width="51.748089mm"
   height="51.748089mm"
   viewBox="0 0 51.748089 51.748089"
   version="1.1"
   id="svg1676"
   inkscape:version="0.92.1 r15371"
   sodipodi:docname="icon.svg"
   inkscape:export-filename="/home/panagdu/work/projects/phonehabits/app/src/main/res/mipmap-xxxhdpi/ic_launcher_round.png"
   inkscape:export-xdpi="94.239998"
   inkscape:export-ydpi="94.239998">
  <defs
     id="defs1670" />
  <sodipodi:namedview
     id="base"
     pagecolor="#ffffff"
     bordercolor="#666666"
     borderopacity="1.0"
     inkscape:pageopacity="0.0"
     inkscape:pageshadow="2"
     inkscape:zoom="0.79545212"
     inkscape:cx="54.011735"
     inkscape:cy="-46.486176"
     inkscape:document-units="mm"
     inkscape:current-layer="layer1"
     showgrid="false"
     fit-margin-top="0"
     fit-margin-left="0"
     fit-margin-right="0"
     fit-margin-bottom="0"
     inkscape:window-width="960"
     inkscape:window-height="1080"
     inkscape:window-x="960"
     inkscape:window-y="0"
     inkscape:window-maximized="0" />
  <metadata
     id="metadata1673">
    <rdf:RDF>
      <cc:Work
         rdf:about="">
        <dc:format>image/svg+xml</dc:format>
        <dc:type
           rdf:resource="http://purl.org/dc/dcmitype/StillImage" />
        <dc:title />
      </cc:Work>
    </rdf:RDF>
  </metadata>
  <g
     inkscape:label="Layer 1"
     inkscape:groupmode="layer"
     id="layer1"
     transform="translate(-10.411666,-14.858099)">
    <path
       inkscape:connector-curvature="0"
       style="fill:#689cc7;fill-opacity:1;fill-rule:evenodd;stroke:none;stroke-width:0.35277775"
       d="m 62.159756,40.732143 c 0,14.290257 -11.58379,25.874044 -25.87404,25.874044 -14.29026,0 -25.87405,-11.583787 -25.87405,-25.874044 0,-14.290254 11.58379,-25.874044 25.87405,-25.874044 14.29025,0 25.87404,11.58379 25.87404,25.874044"
       id="path713" />
    <path
       inkscape:connector-curvature="0"
       style="fill:#ffd7b5;fill-opacity:1;fill-rule:evenodd;stroke:none;stroke-width:0.35277775"
       d="m 44.396846,32.276499 c 0.53055,0.6656 0.41204,1.635734 -0.24667,2.174549 l -12.04405,9.83368 c -0.6587,0.537432 -1.644,0.418925 -2.17455,-0.246669 -0.52916,-0.665594 -0.41203,-1.634355 0.24805,-2.173168 l 12.04405,-9.835062 c 0.65871,-0.53743 1.644,-0.41892 2.17317,0.24667"
       id="path715" />
    <path
       inkscape:connector-curvature="0"
       style="fill:#fff8f0;fill-opacity:1;fill-rule:evenodd;stroke:none;stroke-width:0.35277775"
       d="m 23.068956,50.033901 8.16763,2.5287 1.98713,-6.417524 6.77994,-7.838281 -12.14051,-3.759288 -4.79419,15.486393"
       id="path717" />
    <path
       inkscape:connector-curvature="0"
       style="fill:#fff8f0;fill-opacity:1;fill-rule:evenodd;stroke:none;stroke-width:0.35277775"
       d="m 43.717476,37.204365 c 0.52917,0.666973 0.41065,1.637111 -0.24667,2.174547 l -12.04543,9.835056 c -0.6587,0.537435 -1.644,0.418923 -2.17317,-0.246668 -0.53054,-0.665594 -0.41341,-1.635734 0.24667,-2.173166 l 12.04543,-9.836438 c 0.65871,-0.537432 1.64262,-0.417544 2.17317,0.246669"
       id="path719" />
    <path
       inkscape:connector-curvature="0"
       style="fill:#fff8f0;fill-opacity:1;fill-rule:evenodd;stroke:none;stroke-width:0.35277775"
       d="m 46.071166,26.326139 c 0.53054,0.66559 0.41203,1.63572 -0.24667,2.17316 l -11.60308,9.464368 c -0.66008,0.536056 -1.644,0.417544 -2.17455,-0.248049 -0.52916,-0.665593 -0.41203,-1.635732 0.24667,-2.173164 l 11.60446,-9.462985 c 0.6587,-0.53744 1.644,-0.41893 2.17317,0.24667"
       id="path721" />
    <path
       inkscape:connector-curvature="0"
       style="fill:#000000;fill-opacity:1;fill-rule:evenodd;stroke:none;stroke-width:0.35277775"
       d="m 31.976586,17.903569 h 8.61826 c 1.67018,0 3.03581,1.36563 3.03581,3.03581 v 22.883704 c 0,1.668806 -1.36563,3.035818 -3.03581,3.035818 h -8.61826 c -1.67018,0 -3.03581,-1.367012 -3.03581,-3.035818 V 20.939379 c 0,-1.67018 1.36563,-3.03581 3.03581,-3.03581"
       id="path723" />
    <path
       inkscape:connector-curvature="0"
       style="fill:#b3b3b3;fill-opacity:1;fill-rule:evenodd;stroke:none;stroke-width:0.35277775"
       d="m 30.274716,20.331669 h 12.02062 c 0.0248,0 0.0441,0.0207 0.0441,0.0427 v 23.771155 c 0,0.02341 -0.0193,0.04134 -0.0441,0.04134 h -12.02062 c -0.022,0 -0.0413,-0.01791 -0.0413,-0.04134 V 20.374369 c 0,-0.022 0.0193,-0.0427 0.0413,-0.0427"
       id="path725" />
    <path
       inkscape:connector-curvature="0"
       style="fill:#fff8f0;fill-opacity:1;fill-rule:evenodd;stroke:none;stroke-width:0.35277775"
       d="m 44.844706,36.303131 c 0.53055,0.665589 0.41617,1.643997 -0.24666,2.174543 l -2.25585,1.802473 c -0.66284,0.530546 -1.644,0.420302 -2.17317,-0.24667 -0.53054,-0.665589 -0.41755,-1.641242 0.24667,-2.173164 l 2.25585,-1.803851 c 0.66421,-0.530546 1.64262,-0.418924 2.17316,0.246669"
       id="path727" />
    <path
       inkscape:connector-curvature="0"
       style="fill:#fff8f0;fill-opacity:1;fill-rule:evenodd;stroke:none;stroke-width:0.35277775"
       d="m 45.683936,31.248489 c 0.53054,0.66559 0.41617,1.64262 -0.24667,2.173164 l -1.92098,1.535133 c -0.66284,0.530547 -1.644,0.420303 -2.17455,-0.24529 -0.52917,-0.666972 -0.41616,-1.642621 0.24805,-2.174547 l 1.92098,-1.53651 c 0.66422,-0.53054 1.644,-0.41755 2.17317,0.24805"
       id="path729" />
    <path
       inkscape:connector-curvature="0"
       style="fill:#ffcc00;fill-opacity:1;fill-rule:evenodd;stroke:none;stroke-width:0.35277775"
       d="m 22.571476,47.44181 10.50203,3.252171 -4.55993,14.72434 c -3.67247,-1.154797 -6.99216,-3.108854 -9.75651,-5.655468 l 3.81441,-12.321043"
       id="path731" />
    <path
       inkscape:connector-curvature="0"
       style="fill:#fff8f0;fill-opacity:1;fill-rule:evenodd;stroke:none;stroke-width:0.35277775"
       d="m 26.051026,43.920926 1.04455,0.323836 0.28526,-1.325671 2.30545,-10.648102 c 0.47956,-2.21451 -0.8971,-2.96278 -2.26135,-3.38584 l -2.72163,12.569087 c -0.22738,1.055579 0.37896,2.167655 1.34772,2.46669"
       id="path733" />
    <path
       inkscape:connector-curvature="0"
       style="fill:#fff8f0;fill-opacity:1;fill-rule:evenodd;stroke:none;stroke-width:0.35277775"
       d="m 43.911776,54.263099 4.33393,8.28339 2.25172,-0.191548 c 1.80936,-1.192001 3.46163,-2.603114 4.91684,-4.198882 l -3.13229,-6.232866 -8.3702,2.339906"
       id="path735" />
    <path
       inkscape:connector-curvature="0"
       style="fill:#ffcc00;fill-opacity:1;fill-rule:evenodd;stroke:none;stroke-width:0.35277775"
       d="m 55.270946,55.314543 0.94947,1.91272 c -2.24483,2.710598 -5.03122,4.954043 -8.19382,6.567726 l -1.94303,-3.887444 9.18738,-4.593002"
       id="path737" />
    <path
       inkscape:connector-curvature="0"
       style="fill:#fff8f0;fill-opacity:1;fill-rule:evenodd;stroke:none;stroke-width:0.35277775"
       d="m 36.456596,48.913557 4.03076,4.803842 c 0.59944,0.713822 3.58152,2.827731 4.34082,2.287542 0.7593,-0.540192 -0.5898,-3.042708 -1.20716,-3.741375 l -3.52365,-3.723457 c -1.59714,-1.688098 -2.88975,-1.39871 -3.69589,-0.814422 -0.37208,0.268719 -0.53331,0.486449 0.0551,1.18787"
       id="path739" />
    <path
       inkscape:connector-curvature="0"
       style="fill:#fff8f0;fill-opacity:1;fill-rule:evenodd;stroke:none;stroke-width:0.35277775"
       d="m 36.123106,36.338959 3.99769,7.364236 c 0.15021,-1.408356 2.24344,-1.798342 3.1185,-0.556729 -0.0455,-1.463474 1.8948,-1.99402 2.90766,-1.022501 0.1819,-1.35599 2.28892,-1.664671 3.03582,-0.301791 l 3.41478,6.241132 c 0.95911,1.751488 1.24574,4.5241 0.98805,5.827723 -0.76619,3.862641 -5.73953,4.404212 -7.59161,3.394109 -1.44556,-0.78686 -2.56315,-1.189249 -3.08956,-2.119421 l -9.73584,-17.259931 c -1.23335,-2.180053 1.9885,-3.387217 2.95451,-1.566827"
       id="path741" />
    <path
       inkscape:connector-curvature="0"
       style="fill:#fae1c7;fill-opacity:1;fill-rule:evenodd;stroke:none;stroke-width:0.35277775"
       d="m 42.792806,42.708253 c 0.16675,0.112998 0.31971,0.259069 0.44649,0.438213 -0.003,-0.09784 0.003,-0.190169 0.0165,-0.279741 0.6587,1.220941 1.46761,2.738162 1.46761,2.738162 0,0 -1.20992,-1.774915 -1.93063,-2.896634 z m -2.6665,0.954979 c 0.0165,-0.125402 0.0482,-0.241157 0.0937,-0.348642 0.65181,1.242987 1.71703,3.396862 1.71703,3.396862 0,0 -1.30362,-2.097374 -1.81625,-3.008257 0.008,0.01378 0.008,-0.0028 0.005,-0.03996 z m 7.31049,0.595312 c 0,0 -0.65456,-1.251259 -1.23885,-2.359199 -0.0234,0.07028 -0.04,0.146071 -0.051,0.22462 -0.0882,-0.08544 -0.18466,-0.158474 -0.28526,-0.221866 0.7028,1.069359 1.5751,2.356445 1.5751,2.356445"
       id="path743" />
    <path
       inkscape:connector-curvature="0"
       style="fill:#fae1c7;fill-opacity:1;fill-rule:evenodd;stroke:none;stroke-width:0.35277775"
       d="m 38.536046,47.419762 2.40744,4.270539 -3.06889,-4.41661 c 0.22186,0.01378 0.43822,0.05099 0.66145,0.146071"
       id="path745" />
  </g>
</svg>
